<mxfile host="app.diagrams.net" modified="2021-12-16T09:06:17.244Z" agent="5.0 (Macintosh; Intel Mac OS X 10_15_7) AppleWebKit/537.36 (KHTML, like Gecko) Chrome/96.0.4664.93 Safari/537.36" etag="kqbp0wCknSANrS5IFlRU" version="15.7.4" type="github">
  <diagram id="X9O1S2JTMfTEyRpNo8Po" name="第 1 页">
    <mxGraphModel dx="1426" dy="684" grid="1" gridSize="10" guides="1" tooltips="1" connect="1" arrows="1" fold="1" page="1" pageScale="1" pageWidth="800" pageHeight="600" math="0" shadow="0">
      <root>
        <mxCell id="0" />
        <mxCell id="1" parent="0" />
        <mxCell id="KIBdY-n-4ca7kau3BfGh-8" style="edgeStyle=orthogonalEdgeStyle;rounded=0;orthogonalLoop=1;jettySize=auto;html=1;entryX=0.5;entryY=0;entryDx=0;entryDy=0;" edge="1" parent="1" source="KIBdY-n-4ca7kau3BfGh-1" target="KIBdY-n-4ca7kau3BfGh-2">
          <mxGeometry relative="1" as="geometry" />
        </mxCell>
        <mxCell id="KIBdY-n-4ca7kau3BfGh-29" style="edgeStyle=orthogonalEdgeStyle;rounded=0;orthogonalLoop=1;jettySize=auto;html=1;entryX=0.5;entryY=0;entryDx=0;entryDy=0;" edge="1" parent="1" source="KIBdY-n-4ca7kau3BfGh-1" target="KIBdY-n-4ca7kau3BfGh-21">
          <mxGeometry relative="1" as="geometry" />
        </mxCell>
        <mxCell id="KIBdY-n-4ca7kau3BfGh-1" value="晋升人员" style="strokeWidth=2;html=1;shape=mxgraph.flowchart.start_1;whiteSpace=wrap;" vertex="1" parent="1">
          <mxGeometry x="340" y="10" width="100" height="60" as="geometry" />
        </mxCell>
        <mxCell id="KIBdY-n-4ca7kau3BfGh-11" value="" style="edgeStyle=orthogonalEdgeStyle;rounded=0;orthogonalLoop=1;jettySize=auto;html=1;" edge="1" parent="1" source="KIBdY-n-4ca7kau3BfGh-2" target="KIBdY-n-4ca7kau3BfGh-5">
          <mxGeometry relative="1" as="geometry" />
        </mxCell>
        <mxCell id="KIBdY-n-4ca7kau3BfGh-2" value="上报课程" style="rounded=1;whiteSpace=wrap;html=1;absoluteArcSize=1;arcSize=14;strokeWidth=2;" vertex="1" parent="1">
          <mxGeometry x="460" y="80" width="120" height="40" as="geometry" />
        </mxCell>
        <mxCell id="KIBdY-n-4ca7kau3BfGh-18" style="edgeStyle=orthogonalEdgeStyle;rounded=0;orthogonalLoop=1;jettySize=auto;html=1;entryX=1;entryY=0.5;entryDx=0;entryDy=0;" edge="1" parent="1" source="KIBdY-n-4ca7kau3BfGh-3" target="KIBdY-n-4ca7kau3BfGh-2">
          <mxGeometry relative="1" as="geometry" />
        </mxCell>
        <mxCell id="KIBdY-n-4ca7kau3BfGh-3" value="课程地图&lt;br&gt;选择课程" style="strokeWidth=2;html=1;shape=mxgraph.flowchart.stored_data;whiteSpace=wrap;" vertex="1" parent="1">
          <mxGeometry x="620" y="60" width="100" height="40" as="geometry" />
        </mxCell>
        <mxCell id="KIBdY-n-4ca7kau3BfGh-19" style="edgeStyle=orthogonalEdgeStyle;rounded=0;orthogonalLoop=1;jettySize=auto;html=1;" edge="1" parent="1" source="KIBdY-n-4ca7kau3BfGh-4">
          <mxGeometry relative="1" as="geometry">
            <mxPoint x="580" y="100" as="targetPoint" />
            <Array as="points">
              <mxPoint x="600" y="130" />
              <mxPoint x="600" y="100" />
            </Array>
          </mxGeometry>
        </mxCell>
        <mxCell id="KIBdY-n-4ca7kau3BfGh-4" value="自己思考课程" style="strokeWidth=2;html=1;shape=mxgraph.flowchart.stored_data;whiteSpace=wrap;" vertex="1" parent="1">
          <mxGeometry x="620" y="110" width="100" height="40" as="geometry" />
        </mxCell>
        <mxCell id="KIBdY-n-4ca7kau3BfGh-12" value="" style="edgeStyle=orthogonalEdgeStyle;rounded=0;orthogonalLoop=1;jettySize=auto;html=1;" edge="1" parent="1" source="KIBdY-n-4ca7kau3BfGh-5" target="KIBdY-n-4ca7kau3BfGh-6">
          <mxGeometry relative="1" as="geometry" />
        </mxCell>
        <mxCell id="KIBdY-n-4ca7kau3BfGh-5" value="统计课程（陈水鑫）" style="rounded=1;whiteSpace=wrap;html=1;absoluteArcSize=1;arcSize=14;strokeWidth=2;" vertex="1" parent="1">
          <mxGeometry x="461.25" y="160" width="118.75" height="40" as="geometry" />
        </mxCell>
        <mxCell id="KIBdY-n-4ca7kau3BfGh-13" value="" style="edgeStyle=orthogonalEdgeStyle;rounded=0;orthogonalLoop=1;jettySize=auto;html=1;" edge="1" parent="1" source="KIBdY-n-4ca7kau3BfGh-6" target="KIBdY-n-4ca7kau3BfGh-7">
          <mxGeometry relative="1" as="geometry" />
        </mxCell>
        <mxCell id="KIBdY-n-4ca7kau3BfGh-6" value="课程汇总给主任（郑总）" style="rounded=1;whiteSpace=wrap;html=1;absoluteArcSize=1;arcSize=14;strokeWidth=2;" vertex="1" parent="1">
          <mxGeometry x="461.25" y="240" width="118.75" height="40" as="geometry" />
        </mxCell>
        <mxCell id="KIBdY-n-4ca7kau3BfGh-15" style="edgeStyle=orthogonalEdgeStyle;rounded=0;orthogonalLoop=1;jettySize=auto;html=1;entryX=0.5;entryY=1;entryDx=0;entryDy=0;entryPerimeter=0;" edge="1" parent="1" source="KIBdY-n-4ca7kau3BfGh-7" target="KIBdY-n-4ca7kau3BfGh-14">
          <mxGeometry relative="1" as="geometry" />
        </mxCell>
        <mxCell id="KIBdY-n-4ca7kau3BfGh-38" style="edgeStyle=orthogonalEdgeStyle;rounded=0;orthogonalLoop=1;jettySize=auto;html=1;entryX=1;entryY=0.5;entryDx=0;entryDy=0;" edge="1" parent="1" source="KIBdY-n-4ca7kau3BfGh-7" target="KIBdY-n-4ca7kau3BfGh-25">
          <mxGeometry relative="1" as="geometry">
            <Array as="points">
              <mxPoint x="520" y="440" />
            </Array>
          </mxGeometry>
        </mxCell>
        <mxCell id="KIBdY-n-4ca7kau3BfGh-40" value="线上安排" style="edgeLabel;html=1;align=center;verticalAlign=middle;resizable=0;points=[];" vertex="1" connectable="0" parent="KIBdY-n-4ca7kau3BfGh-38">
          <mxGeometry x="0.4074" y="-1" relative="1" as="geometry">
            <mxPoint as="offset" />
          </mxGeometry>
        </mxCell>
        <mxCell id="KIBdY-n-4ca7kau3BfGh-48" style="edgeStyle=orthogonalEdgeStyle;rounded=0;orthogonalLoop=1;jettySize=auto;html=1;entryX=1;entryY=0.5;entryDx=0;entryDy=0;" edge="1" parent="1" source="KIBdY-n-4ca7kau3BfGh-7" target="KIBdY-n-4ca7kau3BfGh-26">
          <mxGeometry relative="1" as="geometry">
            <Array as="points">
              <mxPoint x="520" y="506" />
            </Array>
          </mxGeometry>
        </mxCell>
        <mxCell id="KIBdY-n-4ca7kau3BfGh-49" value="线下安排" style="edgeLabel;html=1;align=center;verticalAlign=middle;resizable=0;points=[];" vertex="1" connectable="0" parent="KIBdY-n-4ca7kau3BfGh-48">
          <mxGeometry x="0.5655" y="2" relative="1" as="geometry">
            <mxPoint as="offset" />
          </mxGeometry>
        </mxCell>
        <mxCell id="KIBdY-n-4ca7kau3BfGh-7" value="课程汇总给人力资源（林芮）" style="rounded=1;whiteSpace=wrap;html=1;absoluteArcSize=1;arcSize=14;strokeWidth=2;" vertex="1" parent="1">
          <mxGeometry x="460" y="320" width="120" height="40" as="geometry" />
        </mxCell>
        <mxCell id="KIBdY-n-4ca7kau3BfGh-16" style="edgeStyle=orthogonalEdgeStyle;rounded=0;orthogonalLoop=1;jettySize=auto;html=1;entryX=0.595;entryY=1.033;entryDx=0;entryDy=0;entryPerimeter=0;" edge="1" parent="1" source="KIBdY-n-4ca7kau3BfGh-14" target="KIBdY-n-4ca7kau3BfGh-1">
          <mxGeometry relative="1" as="geometry" />
        </mxCell>
        <mxCell id="KIBdY-n-4ca7kau3BfGh-17" value="邮件通知" style="edgeLabel;html=1;align=center;verticalAlign=middle;resizable=0;points=[];" vertex="1" connectable="0" parent="KIBdY-n-4ca7kau3BfGh-16">
          <mxGeometry x="-0.0324" y="1" relative="1" as="geometry">
            <mxPoint as="offset" />
          </mxGeometry>
        </mxCell>
        <mxCell id="KIBdY-n-4ca7kau3BfGh-28" style="edgeStyle=orthogonalEdgeStyle;rounded=0;orthogonalLoop=1;jettySize=auto;html=1;entryX=1;entryY=0.5;entryDx=0;entryDy=0;" edge="1" parent="1" source="KIBdY-n-4ca7kau3BfGh-14" target="KIBdY-n-4ca7kau3BfGh-21">
          <mxGeometry relative="1" as="geometry" />
        </mxCell>
        <mxCell id="KIBdY-n-4ca7kau3BfGh-14" value="课程审核" style="strokeWidth=2;html=1;shape=mxgraph.flowchart.decision;whiteSpace=wrap;" vertex="1" parent="1">
          <mxGeometry x="370" y="170" width="60" height="60" as="geometry" />
        </mxCell>
        <mxCell id="KIBdY-n-4ca7kau3BfGh-31" value="" style="edgeStyle=orthogonalEdgeStyle;rounded=0;orthogonalLoop=1;jettySize=auto;html=1;" edge="1" parent="1" source="KIBdY-n-4ca7kau3BfGh-21" target="KIBdY-n-4ca7kau3BfGh-30">
          <mxGeometry relative="1" as="geometry" />
        </mxCell>
        <mxCell id="KIBdY-n-4ca7kau3BfGh-21" value="课程开发开始" style="rounded=1;whiteSpace=wrap;html=1;absoluteArcSize=1;arcSize=14;strokeWidth=2;" vertex="1" parent="1">
          <mxGeometry x="230" y="100" width="100" height="40" as="geometry" />
        </mxCell>
        <mxCell id="KIBdY-n-4ca7kau3BfGh-36" style="edgeStyle=orthogonalEdgeStyle;rounded=0;orthogonalLoop=1;jettySize=auto;html=1;entryX=0;entryY=0.5;entryDx=0;entryDy=0;" edge="1" parent="1" source="KIBdY-n-4ca7kau3BfGh-22" target="KIBdY-n-4ca7kau3BfGh-34">
          <mxGeometry relative="1" as="geometry">
            <Array as="points">
              <mxPoint x="160" y="300" />
            </Array>
          </mxGeometry>
        </mxCell>
        <mxCell id="KIBdY-n-4ca7kau3BfGh-22" value="PPT培训" style="rounded=1;whiteSpace=wrap;html=1;absoluteArcSize=1;arcSize=14;strokeWidth=2;" vertex="1" parent="1">
          <mxGeometry x="110" y="190" width="100" height="40" as="geometry" />
        </mxCell>
        <mxCell id="KIBdY-n-4ca7kau3BfGh-47" style="edgeStyle=orthogonalEdgeStyle;rounded=0;orthogonalLoop=1;jettySize=auto;html=1;entryX=0.5;entryY=0;entryDx=0;entryDy=0;" edge="1" parent="1" source="KIBdY-n-4ca7kau3BfGh-24" target="KIBdY-n-4ca7kau3BfGh-25">
          <mxGeometry relative="1" as="geometry" />
        </mxCell>
        <mxCell id="KIBdY-n-4ca7kau3BfGh-24" value="课程上报(门户)" style="rounded=1;whiteSpace=wrap;html=1;absoluteArcSize=1;arcSize=14;strokeWidth=2;" vertex="1" parent="1">
          <mxGeometry x="230" y="350" width="100" height="40" as="geometry" />
        </mxCell>
        <mxCell id="KIBdY-n-4ca7kau3BfGh-43" value="" style="edgeStyle=orthogonalEdgeStyle;rounded=0;orthogonalLoop=1;jettySize=auto;html=1;" edge="1" parent="1" source="KIBdY-n-4ca7kau3BfGh-25" target="KIBdY-n-4ca7kau3BfGh-27">
          <mxGeometry relative="1" as="geometry" />
        </mxCell>
        <mxCell id="KIBdY-n-4ca7kau3BfGh-25" value="课程审核/修改" style="rounded=1;whiteSpace=wrap;html=1;absoluteArcSize=1;arcSize=14;strokeWidth=2;" vertex="1" parent="1">
          <mxGeometry x="230" y="420" width="100" height="40" as="geometry" />
        </mxCell>
        <mxCell id="KIBdY-n-4ca7kau3BfGh-42" value="" style="edgeStyle=orthogonalEdgeStyle;rounded=0;orthogonalLoop=1;jettySize=auto;html=1;" edge="1" parent="1" source="KIBdY-n-4ca7kau3BfGh-26" target="KIBdY-n-4ca7kau3BfGh-27">
          <mxGeometry relative="1" as="geometry" />
        </mxCell>
        <mxCell id="KIBdY-n-4ca7kau3BfGh-26" value="课程线下评审" style="rounded=1;whiteSpace=wrap;html=1;absoluteArcSize=1;arcSize=14;strokeWidth=2;" vertex="1" parent="1">
          <mxGeometry x="230" y="486" width="100" height="40" as="geometry" />
        </mxCell>
        <mxCell id="KIBdY-n-4ca7kau3BfGh-27" value="获取D类积分" style="rounded=1;whiteSpace=wrap;html=1;absoluteArcSize=1;arcSize=14;strokeWidth=2;" vertex="1" parent="1">
          <mxGeometry x="230" y="551" width="100" height="40" as="geometry" />
        </mxCell>
        <mxCell id="KIBdY-n-4ca7kau3BfGh-32" value="" style="edgeStyle=orthogonalEdgeStyle;rounded=0;orthogonalLoop=1;jettySize=auto;html=1;" edge="1" parent="1" source="KIBdY-n-4ca7kau3BfGh-30" target="KIBdY-n-4ca7kau3BfGh-22">
          <mxGeometry relative="1" as="geometry" />
        </mxCell>
        <mxCell id="KIBdY-n-4ca7kau3BfGh-33" value="否" style="edgeLabel;html=1;align=center;verticalAlign=middle;resizable=0;points=[];" vertex="1" connectable="0" parent="KIBdY-n-4ca7kau3BfGh-32">
          <mxGeometry x="0.32" y="-1" relative="1" as="geometry">
            <mxPoint as="offset" />
          </mxGeometry>
        </mxCell>
        <mxCell id="KIBdY-n-4ca7kau3BfGh-35" value="" style="edgeStyle=orthogonalEdgeStyle;rounded=0;orthogonalLoop=1;jettySize=auto;html=1;" edge="1" parent="1" source="KIBdY-n-4ca7kau3BfGh-30" target="KIBdY-n-4ca7kau3BfGh-34">
          <mxGeometry relative="1" as="geometry" />
        </mxCell>
        <mxCell id="KIBdY-n-4ca7kau3BfGh-30" value="是否培训过PPT编写教程" style="strokeWidth=2;html=1;shape=mxgraph.flowchart.decision;whiteSpace=wrap;" vertex="1" parent="1">
          <mxGeometry x="240" y="170" width="80" height="80" as="geometry" />
        </mxCell>
        <mxCell id="KIBdY-n-4ca7kau3BfGh-45" style="edgeStyle=orthogonalEdgeStyle;rounded=0;orthogonalLoop=1;jettySize=auto;html=1;entryX=0.5;entryY=0;entryDx=0;entryDy=0;" edge="1" parent="1" source="KIBdY-n-4ca7kau3BfGh-34" target="KIBdY-n-4ca7kau3BfGh-24">
          <mxGeometry relative="1" as="geometry" />
        </mxCell>
        <mxCell id="KIBdY-n-4ca7kau3BfGh-34" value="课程开发" style="rounded=1;whiteSpace=wrap;html=1;absoluteArcSize=1;arcSize=14;strokeWidth=2;" vertex="1" parent="1">
          <mxGeometry x="230" y="280" width="100" height="40" as="geometry" />
        </mxCell>
      </root>
    </mxGraphModel>
  </diagram>
</mxfile>
